<svg width="260" height="219" viewBox="0 0 260 219" fill="none" xmlns="http://www.w3.org/2000/svg">
<path opacity="0.08" d="M110.75 12.4601L110.751 12.4613C121.617 19.798 129.999 31.0495 135.877 46.2584L135.879 46.2618C141.845 61.3646 144.844 82.4798 144.844 109.641C144.844 137.083 141.798 158.385 135.739 173.58L135.738 173.583C129.762 188.801 121.704 199.96 111.587 207.107C101.471 214.159 88.6877 217.703 73.2031 217.703C57.7193 217.703 44.7447 214.113 34.2503 206.962C23.7554 199.81 15.513 188.93 9.54113 174.28C3.577 159.649 0.578125 138.772 0.578125 111.609C0.578125 73.6698 6.43726 46.2814 18.0676 29.3468C31.0033 10.7349 48.9888 1.4375 72.0781 1.4375C87.0867 1.4375 99.9695 5.11841 110.75 12.4601ZM48.3088 166.997L48.3117 167.002C54.6651 177.053 62.9199 182.141 73.0625 182.141C82.8311 182.141 90.5748 177.286 96.2736 167.693C103.191 156.132 106.609 136.89 106.609 110.062C106.609 96.452 105.835 84.9386 104.282 75.528C102.731 66.1236 100.397 58.7889 97.2577 53.5566C91.0981 43.1335 83.0314 37.8438 73.0625 37.8438C66.2886 37.8438 60.2698 40.0414 55.0251 44.4272C49.7514 48.7431 45.7775 56.1742 43.0475 66.6236C40.3124 77.0925 38.9531 92.378 38.9531 112.453C38.9531 138.614 42.0411 156.836 48.3088 166.997ZM220.719 42.625H179.005L201.17 6.64062H259.312V212.5H221.219V43.125V42.625H220.719Z" stroke="#191B21"/>
</svg>
