<svg width="303" height="219" viewBox="0 0 303 219" fill="none" xmlns="http://www.w3.org/2000/svg">
<path opacity="0.08" d="M110.672 12.4592L110.673 12.4603C121.539 19.797 129.921 31.0485 135.799 46.2574L135.801 46.2609C141.767 61.3637 144.766 82.4788 144.766 109.64C144.766 137.082 141.72 158.384 135.661 173.579L135.66 173.582C129.684 188.8 121.626 199.959 111.508 207.106C101.393 214.158 88.6096 217.702 73.125 217.702C57.6412 217.702 44.6666 214.112 34.1722 206.961C23.6772 199.809 15.4348 188.929 9.46301 174.279C3.49887 159.648 0.5 138.771 0.5 111.608C0.5 73.6688 6.35914 46.2804 17.9894 29.3458C30.9252 10.7339 48.9106 1.43652 72 1.43652C87.0086 1.43652 99.8914 5.11743 110.672 12.4592ZM48.2307 166.996L48.2336 167.001C54.5869 177.052 62.8417 182.14 72.9844 182.14C82.753 182.14 90.4967 177.285 96.1955 167.692C103.112 156.131 106.531 136.889 106.531 110.062C106.531 96.4511 105.757 84.9376 104.204 75.527C102.653 66.1226 100.319 58.788 97.1796 53.5556C91.02 43.1325 82.9533 37.8428 72.9844 37.8428C66.2105 37.8428 60.1917 40.0405 54.947 44.4262C49.6733 48.7421 45.6994 56.1732 42.9694 66.6226C40.2342 77.0916 38.875 92.377 38.875 112.452C38.875 138.613 41.963 156.835 48.2307 166.996ZM165.759 72.2959C166.87 50.3286 173.811 33.1013 186.538 20.5583C199.465 7.8174 216.022 1.43652 236.25 1.43652C248.74 1.43652 259.716 4.09231 269.194 9.38865L269.199 9.39142C278.769 14.5947 286.391 22.167 292.066 32.1217L292.068 32.1265C297.841 41.9965 300.719 52.0353 300.719 62.249C300.719 74.4342 297.231 87.5765 290.224 101.683L290.223 101.685C283.319 115.774 270.609 132.465 252.061 151.762L252.059 151.764L228.856 176.233L228.056 177.077H229.219H302.406V212.499H160.109V194.36L223.949 129.257C239.424 113.594 249.733 100.989 254.832 91.4535C260.011 81.8471 262.625 73.1398 262.625 65.3428C262.625 57.2509 259.907 50.5558 254.46 45.2984C249.104 39.9449 242.175 37.2803 233.719 37.2803C225.139 37.2803 217.972 40.4813 212.253 46.8686C206.615 53.1642 203.594 61.657 203.144 72.2959H165.759Z" stroke="#191B21"/>
</svg>
