<svg width="305" height="219" viewBox="0 0 305 219" fill="none" xmlns="http://www.w3.org/2000/svg">
<path opacity="0.08" d="M110.672 12.4601L110.673 12.4613C121.539 19.798 129.921 31.0495 135.799 46.2584L135.801 46.2618C141.767 61.3646 144.766 82.4798 144.766 109.641C144.766 137.083 141.72 158.385 135.661 173.58L135.66 173.583C129.684 188.801 121.626 199.96 111.508 207.107C101.393 214.159 88.6096 217.703 73.125 217.703C57.6412 217.703 44.6666 214.113 34.1722 206.962C23.6772 199.81 15.4348 188.93 9.46301 174.28C3.49887 159.649 0.5 138.772 0.5 111.609C0.5 73.6698 6.35914 46.2814 17.9894 29.3468C30.9252 10.7349 48.9106 1.4375 72 1.4375C87.0086 1.4375 99.8914 5.11841 110.672 12.4601ZM48.2307 166.997L48.2336 167.002C54.5869 177.053 62.8417 182.141 72.9844 182.141C82.753 182.141 90.4967 177.286 96.1955 167.693C103.112 156.132 106.531 136.89 106.531 110.062C106.531 96.452 105.757 84.9386 104.204 75.528C102.653 66.1236 100.319 58.7889 97.1796 53.5566C91.02 43.1335 82.9533 37.8438 72.9844 37.8438C66.2105 37.8438 60.1917 40.0414 54.947 44.4272C49.6733 48.7431 45.6994 56.1742 42.9694 66.6236C40.2342 77.0925 38.875 92.378 38.875 112.453C38.875 138.614 41.963 156.836 48.2307 166.997ZM276.407 17.4732L276.409 17.4746C287.846 28.1683 293.547 40.8358 293.547 55.5C293.547 64.5895 291.044 72.8835 286.037 80.3945L286.035 80.3981C281.123 87.9045 273.932 93.9899 264.436 98.6448L263.289 99.2073L264.513 99.5729C276.986 103.296 286.687 109.802 293.647 119.081L293.65 119.086C300.703 128.272 304.234 139.132 304.234 151.688C304.234 170.11 297.449 185.729 283.86 198.573C270.278 211.318 252.968 217.703 231.891 217.703C211.937 217.703 195.707 211.693 183.158 199.701C170.717 187.72 163.83 171.477 162.531 150.922H200.527C202.256 161.468 205.972 169.415 211.724 174.697L211.731 174.702C217.647 179.951 225.083 182.562 234 182.562C243.305 182.562 251.028 179.567 257.13 173.561C263.321 167.56 266.422 160.212 266.422 151.547C266.422 142.001 262.259 133.941 253.998 127.39C245.811 120.896 234.086 117.557 218.891 117.304V84.5081C228.146 83.7464 235.096 82.2997 239.697 80.1401L239.701 80.1383C244.458 77.8549 248.14 74.7527 250.728 70.8255C253.403 66.9065 254.75 62.7324 254.75 58.3125C254.75 52.557 252.729 47.7819 248.686 44.0265C244.64 40.1743 239.354 38.2656 232.875 38.2656C227.14 38.2656 221.926 40.0364 217.248 43.5678C212.669 46.9327 209.503 51.31 207.759 56.6875H170.867C172.886 41.7547 178.308 29.7678 187.109 20.6921C199.571 7.85737 215.236 1.4375 234.141 1.4375C250.993 1.4375 265.07 6.78675 276.407 17.4732Z" stroke="#191B21"/>
</svg>
