<svg width="50" height="50" viewBox="0 0 50 50" fill="none" xmlns="http://www.w3.org/2000/svg">
<circle opacity="0.05" cx="25" cy="25" r="24" stroke="white" stroke-width="2"/>
<g clip-path="url(#clip0_112_127)">
<path d="M29.1665 16.6665H20.8332C18.532 16.6665 16.6665 18.532 16.6665 20.8332V29.1665C16.6665 31.4677 18.532 33.3332 20.8332 33.3332H29.1665C31.4677 33.3332 33.3332 31.4677 33.3332 29.1665V20.8332C33.3332 18.532 31.4677 16.6665 29.1665 16.6665Z" stroke="white" stroke-width="2" stroke-linecap="round" stroke-linejoin="round"/>
<path d="M28.3333 24.4753C28.4361 25.1688 28.3176 25.8771 27.9947 26.4994C27.6718 27.1218 27.1609 27.6264 26.5346 27.9416C25.9083 28.2569 25.1986 28.3666 24.5064 28.2552C23.8142 28.1438 23.1747 27.817 22.679 27.3212C22.1832 26.8254 21.8564 26.186 21.745 25.4938C21.6336 24.8015 21.7433 24.0918 22.0585 23.4656C22.3737 22.8393 22.8784 22.3284 23.5007 22.0055C24.1231 21.6825 24.8314 21.5641 25.5249 21.6669C26.2324 21.7718 26.8873 22.1015 27.393 22.6072C27.8987 23.1129 28.2283 23.7678 28.3333 24.4753Z" stroke="white" stroke-width="2" stroke-linecap="round" stroke-linejoin="round"/>
<path d="M29.5835 20.4165H29.5918" stroke="white" stroke-width="2" stroke-linecap="round" stroke-linejoin="round"/>
</g>
<defs>
<clipPath id="clip0_112_127">
<rect width="20" height="20" fill="white" transform="translate(15 15)"/>
</clipPath>
</defs>
</svg>
