<svg width="82" height="82" viewBox="0 0 82 82" fill="none" xmlns="http://www.w3.org/2000/svg">
<path d="M82 41C82 63.6437 63.6437 82 41 82C0 82 0 82 0 41C0 18.3563 18.3563 0 41 0C63.6437 0 82 18.3563 82 41Z" fill="#2278D4"/>
<path d="M32.1494 33.8555C33.512 33.8555 34.6842 34.1898 35.666 34.8584C36.6562 35.527 37.418 36.5511 37.9512 37.9307C38.4928 39.3018 38.7637 41.2145 38.7637 43.6689C38.7637 46.1488 38.4886 48.0785 37.9385 49.458C37.3968 50.8376 36.6647 51.8532 35.7422 52.5049C34.8197 53.1481 33.6559 53.4697 32.251 53.4697C30.846 53.4697 29.6654 53.1439 28.709 52.4922C27.7526 51.8405 27.0036 50.8503 26.4619 49.5215C25.9202 48.1927 25.6494 46.3011 25.6494 43.8467C25.6494 40.4189 26.1784 37.9349 27.2363 36.3945C28.4128 34.7018 30.0505 33.8555 32.1494 33.8555ZM32.2383 37.2324C31.6374 37.2324 31.1042 37.4271 30.6387 37.8164C30.1732 38.1973 29.8177 38.8574 29.5723 39.7969C29.3268 40.7363 29.2041 42.1117 29.2041 43.9229C29.2041 46.2842 29.4834 47.9176 30.042 48.8232C30.609 49.7204 31.3411 50.1689 32.2383 50.1689C33.1016 50.1689 33.7871 49.7415 34.2949 48.8867C34.9128 47.8542 35.2217 46.1276 35.2217 43.707C35.2217 41.2526 34.9424 39.5599 34.3838 38.6289C33.8337 37.6979 33.1185 37.2324 32.2383 37.2324ZM44.0322 40.3428H40.5664C40.6595 38.3285 41.29 36.7458 42.458 35.5947C43.6344 34.4352 45.141 33.8555 46.9775 33.8555C48.1117 33.8555 49.1104 34.0967 49.9736 34.5791C50.8454 35.0531 51.5394 35.7428 52.0557 36.6484C52.5804 37.5456 52.8428 38.4596 52.8428 39.3906C52.8428 40.4993 52.5254 41.6927 51.8906 42.9707C51.2643 44.2487 50.1133 45.7594 48.4375 47.5029L46.3428 49.7119H52.9951V53H40.0586V51.2988L45.835 45.4082C47.2314 43.9948 48.1582 42.8607 48.6152 42.0059C49.0807 41.1426 49.3135 40.3639 49.3135 39.6699C49.3135 38.9505 49.0723 38.3581 48.5898 37.8926C48.1159 37.4186 47.5023 37.1816 46.749 37.1816C45.9873 37.1816 45.3525 37.4652 44.8447 38.0322C44.3369 38.5993 44.0661 39.3695 44.0322 40.3428Z" fill="#0F1320"/>
</svg>
