<svg width="82" height="82" viewBox="0 0 82 82" fill="none" xmlns="http://www.w3.org/2000/svg">
<path d="M82 41C82 63.6437 63.6437 82 41 82C0 82 0 82 0 41C0 18.3563 18.3563 0 41 0C63.6437 0 82 18.3563 82 41Z" fill="#22A75D"/>
<path d="M33.1494 33.8555C34.512 33.8555 35.6842 34.1898 36.666 34.8584C37.6562 35.527 38.418 36.5511 38.9512 37.9307C39.4928 39.3018 39.7637 41.2145 39.7637 43.6689C39.7637 46.1488 39.4886 48.0785 38.9385 49.458C38.3968 50.8376 37.6647 51.8532 36.7422 52.5049C35.8197 53.1481 34.6559 53.4697 33.251 53.4697C31.846 53.4697 30.6654 53.1439 29.709 52.4922C28.7526 51.8405 28.0036 50.8503 27.4619 49.5215C26.9202 48.1927 26.6494 46.3011 26.6494 43.8467C26.6494 40.4189 27.1784 37.9349 28.2363 36.3945C29.4128 34.7018 31.0505 33.8555 33.1494 33.8555ZM33.2383 37.2324C32.6374 37.2324 32.1042 37.4271 31.6387 37.8164C31.1732 38.1973 30.8177 38.8574 30.5723 39.7969C30.3268 40.7363 30.2041 42.1117 30.2041 43.9229C30.2041 46.2842 30.4834 47.9176 31.042 48.8232C31.609 49.7204 32.3411 50.1689 33.2383 50.1689C34.1016 50.1689 34.7871 49.7415 35.2949 48.8867C35.9128 47.8542 36.2217 46.1276 36.2217 43.707C36.2217 41.2526 35.9424 39.5599 35.3838 38.6289C34.8337 37.6979 34.1185 37.2324 33.2383 37.2324ZM44.7783 34.3252H50.0977V53H46.5684V37.6641H42.7217L44.7783 34.3252Z" fill="#0F1320"/>
</svg>
