<svg width="82" height="82" viewBox="0 0 82 82" fill="none" xmlns="http://www.w3.org/2000/svg">
<path d="M82 41C82 63.6437 63.6437 82 41 82C0 82 0 82 0 41C0 18.3563 18.3563 0 41 0C63.6437 0 82 18.3563 82 41Z" fill="#FFD100"/>
<path d="M31.1494 33.8555C32.512 33.8555 33.6842 34.1898 34.666 34.8584C35.6562 35.527 36.418 36.5511 36.9512 37.9307C37.4928 39.3018 37.7637 41.2145 37.7637 43.6689C37.7637 46.1488 37.4886 48.0785 36.9385 49.458C36.3968 50.8376 35.6647 51.8532 34.7422 52.5049C33.8197 53.1481 32.6559 53.4697 31.251 53.4697C29.846 53.4697 28.6654 53.1439 27.709 52.4922C26.7526 51.8405 26.0036 50.8503 25.4619 49.5215C24.9202 48.1927 24.6494 46.3011 24.6494 43.8467C24.6494 40.4189 25.1784 37.9349 26.2363 36.3945C27.4128 34.7018 29.0505 33.8555 31.1494 33.8555ZM31.2383 37.2324C30.6374 37.2324 30.1042 37.4271 29.6387 37.8164C29.1732 38.1973 28.8177 38.8574 28.5723 39.7969C28.3268 40.7363 28.2041 42.1117 28.2041 43.9229C28.2041 46.2842 28.4834 47.9176 29.042 48.8232C29.609 49.7204 30.3411 50.1689 31.2383 50.1689C32.1016 50.1689 32.7871 49.7415 33.2949 48.8867C33.9128 47.8542 34.2217 46.1276 34.2217 43.707C34.2217 41.2526 33.9424 39.5599 33.3838 38.6289C32.8337 37.6979 32.1185 37.2324 31.2383 37.2324ZM43.4385 38.9336H40.0234C40.2012 37.554 40.6963 36.4453 41.5088 35.6074C42.6429 34.4395 44.069 33.8555 45.7871 33.8555C47.319 33.8555 48.6012 34.3421 49.6338 35.3154C50.6748 36.2887 51.1953 37.444 51.1953 38.7812C51.1953 39.6107 50.9668 40.3682 50.5098 41.0537C50.0612 41.7393 49.4053 42.2936 48.542 42.7168C49.6761 43.0553 50.5605 43.6478 51.1953 44.4941C51.8385 45.332 52.1602 46.3223 52.1602 47.4648C52.1602 49.1406 51.5423 50.5625 50.3066 51.7305C49.071 52.89 47.4967 53.4697 45.584 53.4697C43.7728 53.4697 42.2959 52.9238 41.1533 51.832C40.0107 50.7318 39.3844 49.238 39.2744 47.3506H42.791C42.9434 48.3154 43.2777 49.0348 43.7939 49.5088C44.3187 49.9743 44.9788 50.207 45.7744 50.207C46.6038 50.207 47.2894 49.9404 47.8311 49.4072C48.3812 48.874 48.6562 48.2223 48.6562 47.4521C48.6562 46.6058 48.2881 45.8906 47.5518 45.3066C46.8154 44.7227 45.7533 44.4222 44.3652 44.4053V41.3584C45.2201 41.2907 45.8548 41.1595 46.2695 40.9648C46.6927 40.7617 47.0186 40.4867 47.2471 40.1396C47.484 39.7926 47.6025 39.4245 47.6025 39.0352C47.6025 38.5273 47.4248 38.1084 47.0693 37.7783C46.7139 37.4398 46.2484 37.2705 45.6729 37.2705C45.165 37.2705 44.7038 37.4271 44.2891 37.7402C43.8743 38.0449 43.5908 38.4427 43.4385 38.9336Z" fill="#0F1320"/>
</svg>
