<svg width="50" height="50" viewBox="0 0 50 50" fill="none" xmlns="http://www.w3.org/2000/svg">
<circle opacity="0.05" cx="25" cy="25" r="24" stroke="white" stroke-width="2"/>
<path d="M34.1668 17.5001C33.3688 18.063 32.4853 18.4935 31.5502 18.7751C31.0483 18.198 30.3813 17.789 29.6394 17.6034C28.8974 17.4177 28.1164 17.4644 27.4019 17.7371C26.6874 18.0098 26.0739 18.4954 25.6443 19.1282C25.2148 19.7609 24.9899 20.5104 25.0002 21.2751V22.1084C23.5357 22.1464 22.0846 21.8216 20.776 21.163C19.4674 20.5043 18.3421 19.5323 17.5002 18.3334C17.5002 18.3334 14.1668 25.8334 21.6668 29.1667C19.9506 30.3317 17.9061 30.9159 15.8335 30.8334C23.3335 35.0001 32.5002 30.8334 32.5002 21.2501C32.4994 21.018 32.4771 20.7864 32.4335 20.5584C33.284 19.7197 33.8842 18.6607 34.1668 17.5001V17.5001Z" fill="white"/>
</svg>
